{
	"asset":{
		"generator":"Khronos glTF Blender I/O v5.1.19",
		"version":"2.0"
	},
	"scene":0,
	"scenes":[
		{
			"name":"Scene",
			"nodes":[
				0
			]
		}
	],
	"nodes":[
		{
			"mesh":0,
			"name":"Piece"
		}
	],
	"meshes":[
		{
			"name":"Cylinder",
			"primitives":[
				{
					"attributes":{
						"POSITION":0,
						"NORMAL":1,
						"TEXCOORD_0":2
					},
					"indices":3
				}
			]
		}
	],
	"accessors":[
		{
			"bufferView":0,
			"componentType":5126,
			"count":394,
			"max":[
				0.5188896656036377,
				1.3205736875534058,
				0.4812401831150055
			],
			"min":[
				-0.48111045360565186,
				5.960464477539063e-08,
				-0.5187598466873169
			],
			"type":"VEC3"
		},
		{
			"bufferView":1,
			"componentType":5126,
			"count":394,
			"type":"VEC3"
		},
		{
			"bufferView":2,
			"componentType":5126,
			"count":394,
			"type":"VEC2"
		},
		{
			"bufferView":3,
			"componentType":5123,
			"count":1734,
			"type":"SCALAR"
		}
	],
	"bufferViews":[
		{
			"buffer":0,
			"byteLength":4728,
			"byteOffset":0,
			"target":34962
		},
		{
			"buffer":0,
			"byteLength":4728,
			"byteOffset":4728,
			"target":34962
		},
		{
			"buffer":0,
			"byteLength":3152,
			"byteOffset":9456,
			"target":34962
		},
		{
			"buffer":0,
			"byteLength":3468,
			"byteOffset":12608,
			"target":34963
		}
	],
	"buffers":[
		{
			"byteLength":16076,
			"uri":"piece.bin"
		}
	]
}
